<?xml version="1.0" encoding="UTF-8"?>
<svg xmlns="http://www.w3.org/2000/svg" version="1.1" viewBox="0 0 465.85 177.67">
  <defs>
    <style>
      .cls-1 {
        stroke: #2e2e2f;
      }

      .cls-1, .cls-2 {
        stroke-width: 10px;
      }

      .cls-1, .cls-3, .cls-4 {
        fill: #2e2e2f;
      }

      .cls-2 {
        fill: none;
        stroke: #ccc;
      }

      .cls-5 {
        fill: #ccc;
      }

      .cls-6, .cls-7, .cls-4 {
        font-family: PretendardGOV-Bold, 'Pretendard GOV';
        font-size: 17px;
        font-weight: 700;
      }

      .cls-7 {
        fill: #999;
      }
    </style>
  </defs>
  <!-- Generator: Adobe Illustrator 28.6.0, SVG Export Plug-In . SVG Version: 1.2.0 Build 709)  -->
  <g>
    <g id="_레이어_1" data-name="레이어_1">
      <path id="bxs-package" d="M214.19,23.76c0-.29-.05-.58-.12-.86-.03-.1-.08-.2-.12-.3-.07-.23-.17-.45-.28-.66-.06-.11-.15-.2-.23-.3-.12-.18-.26-.36-.41-.52-.09-.09-.21-.16-.31-.24-.15-.14-.31-.26-.48-.38-.02-.01-.04-.01-.06-.02l-.03-.02L176.24.5c-1.21-.67-2.67-.67-3.88,0l-36.08,19.96s-.03.03-.04.04l-.04.02c-.13.09-.26.19-.38.29-.15.1-.29.21-.42.33-.11.13-.22.27-.32.41-.11.13-.22.27-.32.42-.09.18-.17.36-.24.56-.07.13-.12.26-.16.4-.07.27-.11.56-.12.84,0,.07-.03.13-.03.2v32.01c0,1.45.79,2.79,2.06,3.5l35.91,19.94h0l.08.04c.17.09.35.16.54.22.13.06.26.11.39.16.66.17,1.36.17,2.02,0,.13-.05.26-.1.39-.16.19-.06.37-.13.54-.22l.08-.04h0l35.92-19.95c1.27-.71,2.05-2.04,2.05-3.5V23.95c0-.07-.02-.12-.03-.19ZM174.1,39.45l-27.66-15.47,11.05-6.11,27.34,15.62-10.73,5.96ZM174.29,8.57l27.68,15.39-8.98,4.99-27.32-15.61,8.61-4.76ZM178.21,69.17v-22.72s12-6.71,12-6.71v12.22l8-4v-12.7l8-4.47v22.82l-28,15.56Z"/>
      <line id="_선_19" data-name="선_19" class="cls-2" x1="50.88" y1="120.04" x2="419.88" y2="120.04"/>
      <circle id="_타원_1" data-name="타원_1" class="cls-3" cx="50.88" cy="120.04" r="19.5"/>
      <circle id="_타원_2" data-name="타원_2" class="cls-3" cx="174.21" cy="120.04" r="19.5"/>
      <circle id="_타원_2-2" data-name="타원_2" class="cls-5" cx="297.55" cy="120.04" r="19.5"/>
      <circle id="_타원_3" data-name="타원_3" class="cls-5" cx="420.88" cy="120.04" r="19.5"/>
      <text class="cls-6" transform="translate(20.92 168.55)"><tspan x="0" y="0">주문완료</tspan></text>
      <text class="cls-4" transform="translate(143.16 168.45)"><tspan x="0" y="0">주문확정</tspan></text>
      <text class="cls-7" transform="translate(281.35 168.45)"><tspan x="0" y="0">배차</tspan></text>
      <text class="cls-7" transform="translate(407.2 168.45)"><tspan x="0" y="0">배송</tspan></text>
      <line id="_선_19-2" data-name="선_19" class="cls-1" x1="50.88" y1="120.04" x2="174.21" y2="120.04"/>
    </g>
  </g>
</svg>